<!-- Simplified cat sprite sheet (placeholder). Each frame 160x120 arranged horizontally. Replace paths with detailed art later. -->
<svg xmlns="http://www.w3.org/2000/svg" width="1600" height="120" viewBox="0 0 1600 120">
  <defs>
    <style>
      .body{fill:#5a4632;stroke:#2d241b;stroke-width:2;}
      .stripe{fill:#3b2d20;}
      .eye{fill:#d4f26d;stroke:#1e1e1e;stroke-width:2;}
      .pupil{fill:#1a1a1a;}
      .nose{fill:#b1645c;}
      .white{fill:#eee;}
    </style>
    <filter id="catShadow" x="-20%" y="-20%" width="140%" height="160%">
      <feDropShadow dx="0" dy="2" stdDeviation="2" flood-color="#000" flood-opacity="0.35"/>
      <feDropShadow dx="0" dy="6" stdDeviation="6" flood-color="#000" flood-opacity="0.15"/>
    </filter>
  </defs>
  <!-- Frame 1: idle loaf -->
  <g transform="translate(0 0)" filter="url(#catShadow)">
    <path class="body" d="M30 80 q0-18 14-30 l18-12 q6-5 12-18 2-4 6-4 4 0 6 4 6 13 12 18l18 12q14 12 14 30 0 18-16 28-22 12-50 12t-50-12q-16-10-16-28Z" />
    <path class="white" d="M70 64 q-10 2 -14 8 6 10 24 10t24-10q-4-6 -14-8 -2 3 -10 3t-10-3Z" />
    <path class="white" d="M54 66 q-8 4 -10 10 4 4 10 4 4 -6 0 -14Z" />
    <path class="white" d="M106 66 q8 4 10 10 -4 4 -10 4 -4 -6 0 -14Z" />
  <circle class="eye" cx="55" cy="60" r="10" />
  <circle class="eye" cx="105" cy="60" r="10" />
  <rect class="stripe" x="60" y="74" width="40" height="6" rx="3" />
    <path class="nose" d="M78 66 h4 l-2 3z"/>
  </g>
  <!-- Frame 2: blink (eyes closed) -->
  <g transform="translate(160 0)" filter="url(#catShadow)">
    <path class="body" d="M30 80 q0-18 14-30 l18-12 q6-5 12-18 2-4 6-4 4 0 6 4 6 13 12 18l18 12q14 12 14 30 0 18-16 28-22 12-50 12t-50-12q-16-10-16-28Z" />
    <path class="white" d="M70 64 q-10 2 -14 8 6 10 24 10t24-10q-4-6 -14-8 -2 3 -10 3t-10-3Z" />
    <path class="white" d="M54 66 q-8 4 -10 10 4 4 10 4 4 -6 0 -14Z" />
    <path class="white" d="M106 66 q8 4 10 10 -4 4 -10 4 -4 -6 0 -14Z" />
    <rect class="stripe" x="45" y="58" width="20" height="4" rx="2" />
    <rect class="stripe" x="95" y="58" width="20" height="4" rx="2" />
    <path class="nose" d="M78 66 h4 l-2 3z"/>
  </g>
  <!-- Frame 3: idle look left -->
  <g transform="translate(320 0)" filter="url(#catShadow)">
    <path class="body" d="M30 80 q0-18 14-30 l18-12 q6-5 12-18 2-4 6-4 4 0 6 4 6 13 12 18l18 12q14 12 14 30 0 18-16 28-22 12-50 12t-50-12q-16-10-16-28Z" />
    <path class="white" d="M70 64 q-10 2 -14 8 6 10 24 10t24-10q-4-6 -14-8 -2 3 -10 3t-10-3Z" />
    <path class="white" d="M54 66 q-8 4 -10 10 4 4 10 4 4 -6 0 -14Z" />
    <path class="white" d="M106 66 q8 4 10 10 -4 4 -10 4 -4 -6 0 -14Z" />
  <circle class="eye" cx="50" cy="60" r="10" />
  <circle class="eye" cx="100" cy="60" r="10" />
  <rect class="stripe" x="56" y="74" width="44" height="6" rx="3" />
    <path class="nose" d="M78 66 h4 l-2 3z"/>
  </g>
  <!-- Frame 4: idle look right -->
  <g transform="translate(480 0)" filter="url(#catShadow)">
    <path class="body" d="M30 80 q0-18 14-30 l18-12 q6-5 12-18 2-4 6-4 4 0 6 4 6 13 12 18l18 12q14 12 14 30 0 18-16 28-22 12-50 12t-50-12q-16-10-16-28Z" />
    <path class="white" d="M70 64 q-10 2 -14 8 6 10 24 10t24-10q-4-6 -14-8 -2 3 -10 3t-10-3Z" />
    <path class="white" d="M54 66 q-8 4 -10 10 4 4 10 4 4 -6 0 -14Z" />
    <path class="white" d="M106 66 q8 4 10 10 -4 4 -10 4 -4 -6 0 -14Z" />
  <circle class="eye" cx="60" cy="60" r="10" />
  <circle class="eye" cx="110" cy="60" r="10" />
  <rect class="stripe" x="60" y="74" width="44" height="6" rx="3" />
    <path class="nose" d="M78 66 h4 l-2 3z"/>
  </g>
  <!-- Frame 5: sleep start -->
  <g transform="translate(640 0)" filter="url(#catShadow)">
    <path class="body" d="M30 82 q0-20 14-32 l18-12 q6-5 12-18 2-4 6-4 4 0 6 4 6 13 12 18l18 12q14 12 14 32 0 18-16 28-22 12-50 12t-50-12q-16-10-16-28Z" />
    <path class="white" d="M70 66 q-10 2 -14 8 6 10 24 10t24-10q-4-6 -14-8 -2 3 -10 3t-10-3Z" />
    <rect class="stripe" x="45" y="58" width="20" height="4" rx="2" />
    <rect class="stripe" x="95" y="58" width="20" height="4" rx="2" />
  </g>
  <!-- Frame 6: sleep deep (Z) -->
  <g transform="translate(800 0)" filter="url(#catShadow)">
    <path class="body" d="M30 82 q0-20 14-32 l18-12 q6-5 12-18 2-4 6-4 4 0 6 4 6 13 12 18l18 12q14 12 14 32 0 18-16 28-22 12-50 12t-50-12q-16-10-16-28Z" />
    <path class="white" d="M70 66 q-10 2 -14 8 6 10 24 10t24-10q-4-6 -14-8 -2 3 -10 3t-10-3Z" />
    <text x="120" y="40" font-size="18" font-family="Arial" fill="#888">Z</text>
  </g>
  <!-- Frame 7: walk 1 -->
  <g transform="translate(960 0)" filter="url(#catShadow)">
    <path class="body" d="M30 80 q0-18 14-30 l18-12 q6-5 12-18 2-4 6-4 4 0 6 4 6 13 12 18l18 12q14 12 14 30 0 18-16 28-22 12-50 12t-50-12q-16-10-16-28Z" />
    <path class="white" d="M70 64 q-10 2 -14 8 6 10 24 10t24-10q-4-6 -14-8 -2 3 -10 3t-10-3Z" />
    <path class="white" d="M54 66 q-8 4 -10 10 4 4 10 4 4 -6 0 -14Z" />
    <path class="white" d="M106 66 q8 4 10 10 -4 4 -10 4 -4 -6 0 -14Z" />
  <circle class="eye" cx="55" cy="60" r="10" />
  <circle class="eye" cx="105" cy="60" r="10" />
    <rect class="stripe" x="40" y="95" width="20" height="6" rx="3" />
    <rect class="stripe" x="100" y="95" width="20" height="6" rx="3" />
  </g>
  <!-- Frame 8: walk 2 -->
  <g transform="translate(1120 0)" filter="url(#catShadow)">
    <path class="body" d="M30 80 q0-18 14-30 l18-12 q6-5 12-18 2-4 6-4 4 0 6 4 6 13 12 18l18 12q14 12 14 30 0 18-16 28-22 12-50 12t-50-12q-16-10-16-28Z" />
    <path class="white" d="M70 64 q-10 2 -14 8 6 10 24 10t24-10q-4-6 -14-8 -2 3 -10 3t-10-3Z" />
    <path class="white" d="M54 66 q-8 4 -10 10 4 4 10 4 4 -6 0 -14Z" />
    <path class="white" d="M106 66 q8 4 10 10 -4 4 -10 4 -4 -6 0 -14Z" />
  <circle class="eye" cx="55" cy="60" r="10" />
  <circle class="eye" cx="105" cy="60" r="10" />
    <rect class="stripe" x="50" y="95" width="20" height="6" rx="3" />
    <rect class="stripe" x="90" y="95" width="20" height="6" rx="3" />
  </g>
  <!-- Frame 9: walk 3 (front right extended, back left) -->
  <g transform="translate(1280 0)" filter="url(#catShadow)">
    <path class="body" d="M30 80 q0-18 14-30 l18-12 q6-5 12-18 2-4 6-4 4 0 6 4 6 13 12 18l18 12q14 12 14 30 0 18-16 28-22 12-50 12t-50-12q-16-10-16-28Z" />
    <path class="white" d="M70 64 q-10 2 -14 8 6 10 24 10t24-10q-4-6 -14-8 -2 3 -10 3t-10-3Z" />
    <path class="white" d="M54 66 q-8 4 -10 10 4 4 10 4 4 -6 0 -14Z" />
    <path class="white" d="M106 66 q8 4 10 10 -4 4 -10 4 -4 -6 0 -14Z" />
  <circle class="eye" cx="55" cy="60" r="10" />
  <circle class="eye" cx="105" cy="60" r="10" />
    <rect class="stripe" x="42" y="95" width="22" height="6" rx="3" />
    <rect class="stripe" x="98" y="95" width="14" height="6" rx="3" />
  </g>
  <!-- Frame 10: walk 4 (front left extended, back right) -->
  <g transform="translate(1440 0)" filter="url(#catShadow)">
    <path class="body" d="M30 80 q0-18 14-30 l18-12 q6-5 12-18 2-4 6-4 4 0 6 4 6 13 12 18l18 12q14 12 14 30 0 18-16 28-22 12-50 12t-50-12q-16-10-16-28Z" />
    <path class="white" d="M70 64 q-10 2 -14 8 6 10 24 10t24-10q-4-6 -14-8 -2 3 -10 3t-10-3Z" />
    <path class="white" d="M54 66 q-8 4 -10 10 4 4 10 4 4 -6 0 -14Z" />
    <path class="white" d="M106 66 q8 4 10 10 -4 4 -10 4 -4 -6 0 -14Z" />
  <circle class="eye" cx="55" cy="60" r="10" />
  <circle class="eye" cx="105" cy="60" r="10" />
    <rect class="stripe" x="40" y="95" width="14" height="6" rx="3" />
    <rect class="stripe" x="104" y="95" width="22" height="6" rx="3" />
  </g>
</svg>
