<!-- Pixel art cat sprite sheet: 10 frames (160x120 each) arranged horizontally (1600x120) -->
<svg xmlns="http://www.w3.org/2000/svg" width="1600" height="120" viewBox="0 0 1600 120" shape-rendering="crispEdges">
  <defs>
    <style>
      .b { fill:#5a4632; }
      .bh { fill:#6b5038; }
      .bs { fill:#4c3a29; }
      .eye { fill:#d4f26d; stroke:#1e1e1e; stroke-width:2; }
      .lid { fill:#2d241b; }
      .nose { fill:#b1645c; }
      .stripe { fill:#3b2d20; }
      .z { font: 700 16px 'Courier New', monospace; fill:#888; }
    </style>
  </defs>
  <!-- Helper: Each frame uses an 16x12 grid of 10px blocks -->
  <!-- Frame 1: idle -->
  <g transform="translate(0 0)">
    <!-- Body loaf -->
    <rect class="b" x="20" y="50" width="120" height="50" rx="6"/>
    <!-- Head -->
    <rect class="b" x="40" y="30" width="80" height="40" rx="6"/>
    <!-- Ears -->
    <rect class="b" x="45" y="20" width="16" height="16"/>
    <rect class="b" x="99" y="20" width="16" height="16"/>
    <!-- Eyes -->
    <circle class="eye" cx="55" cy="60" r="10" />
    <circle class="eye" cx="105" cy="60" r="10" />
    <!-- Nose / muzzle -->
    <rect class="bh" x="73" y="58" width="14" height="10" rx="2"/>
    <rect class="nose" x="78" y="58" width="4" height="4" rx="1"/>
    <!-- Stripes -->
    <rect class="stripe" x="60" y="44" width="10" height="4"/>
    <rect class="stripe" x="90" y="44" width="10" height="4"/>
    <rect class="stripe" x="70" y="84" width="40" height="6" rx="3"/>
  </g>
  <!-- Frame 2: blink -->
  <g transform="translate(160 0)">
    <rect class="b" x="20" y="50" width="120" height="50" rx="6"/>
    <rect class="b" x="40" y="30" width="80" height="40" rx="6"/>
    <rect class="b" x="45" y="20" width="16" height="16"/>
    <rect class="b" x="99" y="20" width="16" height="16"/>
    <!-- Closed lids -->
    <rect class="lid" x="45" y="58" width="20" height="4" rx="2"/>
    <rect class="lid" x="95" y="58" width="20" height="4" rx="2"/>
    <rect class="bh" x="73" y="58" width="14" height="10" rx="2"/>
    <rect class="nose" x="78" y="58" width="4" height="4" rx="1"/>
    <rect class="stripe" x="70" y="84" width="40" height="6" rx="3"/>
  </g>
  <!-- Frame 3: look left -->
  <g transform="translate(320 0)">
    <rect class="b" x="20" y="50" width="120" height="50" rx="6"/>
    <rect class="b" x="40" y="30" width="80" height="40" rx="6"/>
    <rect class="b" x="45" y="20" width="16" height="16"/>
    <rect class="b" x="99" y="20" width="16" height="16"/>
    <circle class="eye" cx="50" cy="60" r="10" />
    <circle class="eye" cx="100" cy="60" r="10" />
    <rect class="bh" x="73" y="58" width="14" height="10" rx="2"/>
    <rect class="nose" x="78" y="58" width="4" height="4" rx="1"/>
    <rect class="stripe" x="70" y="84" width="40" height="6" rx="3"/>
  </g>
  <!-- Frame 4: look right -->
  <g transform="translate(480 0)">
    <rect class="b" x="20" y="50" width="120" height="50" rx="6"/>
    <rect class="b" x="40" y="30" width="80" height="40" rx="6"/>
    <rect class="b" x="45" y="20" width="16" height="16"/>
    <rect class="b" x="99" y="20" width="16" height="16"/>
    <circle class="eye" cx="60" cy="60" r="10" />
    <circle class="eye" cx="110" cy="60" r="10" />
    <rect class="bh" x="73" y="58" width="14" height="10" rx="2"/>
    <rect class="nose" x="78" y="58" width="4" height="4" rx="1"/>
    <rect class="stripe" x="70" y="84" width="40" height="6" rx="3"/>
  </g>
  <!-- Frame 5: sleep start -->
  <g transform="translate(640 0)">
    <rect class="b" x="20" y="52" width="120" height="48" rx="6"/>
    <rect class="b" x="40" y="32" width="80" height="38" rx="6"/>
    <rect class="b" x="45" y="22" width="16" height="16"/>
    <rect class="b" x="99" y="22" width="16" height="16"/>
    <rect class="lid" x="45" y="58" width="20" height="4" rx="2"/>
    <rect class="lid" x="95" y="58" width="20" height="4" rx="2"/>
  </g>
  <!-- Frame 6: sleep deep -->
  <g transform="translate(800 0)">
    <rect class="b" x="20" y="52" width="120" height="48" rx="6"/>
    <rect class="b" x="40" y="32" width="80" height="38" rx="6"/>
    <rect class="b" x="45" y="22" width="16" height="16"/>
    <rect class="b" x="99" y="22" width="16" height="16"/>
    <text class="z" x="120" y="40">Z</text>
  </g>
  <!-- Walk cycle: 4 frames (7-10) -->
  <!-- Frame 7 -->
  <g transform="translate(960 0)">
    <rect class="b" x="24" y="54" width="116" height="46" rx="6"/>
    <rect class="b" x="42" y="34" width="76" height="38" rx="6"/>
    <rect class="b" x="47" y="24" width="14" height="14"/>
    <rect class="b" x="99" y="24" width="14" height="14"/>
    <circle class="eye" cx="55" cy="60" r="10" />
    <circle class="eye" cx="105" cy="60" r="10" />
    <!-- Simple leg hints -->
    <rect class="bs" x="40" y="94" width="20" height="6" rx="2"/>
    <rect class="bs" x="100" y="94" width="20" height="6" rx="2"/>
  </g>
  <!-- Frame 8 -->
  <g transform="translate(1120 0)">
    <rect class="b" x="24" y="54" width="116" height="46" rx="6"/>
    <rect class="b" x="42" y="34" width="76" height="38" rx="6"/>
    <rect class="b" x="47" y="24" width="14" height="14"/>
    <rect class="b" x="99" y="24" width="14" height="14"/>
    <circle class="eye" cx="55" cy="60" r="10" />
    <circle class="eye" cx="105" cy="60" r="10" />
    <rect class="bs" x="48" y="94" width="20" height="6" rx="2"/>
    <rect class="bs" x="92" y="94" width="20" height="6" rx="2"/>
  </g>
  <!-- Frame 9 -->
  <g transform="translate(1280 0)">
    <rect class="b" x="24" y="54" width="116" height="46" rx="6"/>
    <rect class="b" x="42" y="34" width="76" height="38" rx="6"/>
    <rect class="b" x="47" y="24" width="14" height="14"/>
    <rect class="b" x="99" y="24" width="14" height="14"/>
    <circle class="eye" cx="55" cy="60" r="10" />
    <circle class="eye" cx="105" cy="60" r="10" />
    <rect class="bs" x="42" y="94" width="22" height="6" rx="2"/>
    <rect class="bs" x="98" y="94" width="14" height="6" rx="2"/>
  </g>
  <!-- Frame 10 -->
  <g transform="translate(1440 0)">
    <rect class="b" x="24" y="54" width="116" height="46" rx="6"/>
    <rect class="b" x="42" y="34" width="76" height="38" rx="6"/>
    <rect class="b" x="47" y="24" width="14" height="14"/>
    <rect class="b" x="99" y="24" width="14" height="14"/>
    <circle class="eye" cx="55" cy="60" r="10" />
    <circle class="eye" cx="105" cy="60" r="10" />
    <rect class="bs" x="40" y="94" width="14" height="6" rx="2"/>
    <rect class="bs" x="104" y="94" width="22" height="6" rx="2"/>
  </g>
</svg>
